<svg id="Capa_1" data-name="Capa 1" xmlns="http://www.w3.org/2000/svg" viewBox="0 0 128 128"><defs><style>.cls-1{fill:#44ddfe;}</style></defs><path class="cls-1" d="M74.51,110.62c-19.89.63-39.19-13.1-45.16-31.36-7.12-21.75-1.79-40.07,15.09-55.21,6.27-5.62,11-5.62,17.4.07,9,8,15.72,17.77,21.86,28.08A163.77,163.77,0,0,1,97.92,82.94a46.38,46.38,0,0,1,2.52,12.76c.32,6.13-1.69,8.7-8.61,11.35C86,109.29,80,111,74.51,110.62ZM46.53,28a26.92,26.92,0,0,0-2.71,2C26.89,46.64,25.57,72.81,40.71,91.31c10.64,13,29.58,18.64,45.62,13.54.81-.25,1.88-.43,2.13-1.34.29-1.07-.93-1.35-1.53-1.81A69.78,69.78,0,0,1,74.35,88.53,160,160,0,0,1,55,56.26C51,47.37,47.62,38.37,46.53,28ZM96.62,95.43c-.19-1.23-.36-2.83-.69-4.4C93.32,78.72,88,67.46,81.84,56.65c-6.35-11.12-13.46-21.8-23.42-30.18C56.61,25,54.37,22.91,52.16,24s-1.73,4.11-1.3,6.48c.11.59.12,1.21.24,1.8C54,46.94,60.7,59.9,68.29,72.52c5.92,9.85,12.53,19.1,21.5,26.48,1.63,1.34,3.37,2.48,5.31,1.53S96.43,97.52,96.62,95.43Z"/></svg>